<?xml version="1.0" standalone="no"?>
<!DOCTYPE svg PUBLIC "-//W3C//DTD SVG 20010904//EN"
 "http://www.w3.org/TR/2001/REC-SVG-20010904/DTD/svg10.dtd">
<svg version="1.0" xmlns="http://www.w3.org/2000/svg"
 width="266.000000pt" height="266.000000pt" viewBox="0 0 266.000000 266.000000"
 preserveAspectRatio="xMidYMid meet">
<metadata>
Created by potrace 1.14, written by Peter Selinger 2001-2017
</metadata>
<g transform="translate(0.000000,266.000000) scale(0.100000,-0.100000)"
fill="#000000" stroke="none">
<path d="M1205 2644 c-212 -37 -417 -128 -578 -257 -29 -23 -87 -68 -130 -101
-132 -99 -260 -249 -340 -396 -58 -107 -114 -263 -133 -368 -2 -12 -7 -34 -10
-50 -15 -70 -12 -320 6 -418 94 -522 480 -922 995 -1031 99 -21 330 -25 435
-7 208 34 417 125 575 251 33 26 94 74 135 105 243 184 412 457 476 768 19 90
25 337 12 420 -5 25 -11 63 -14 85 -17 111 -110 335 -185 447 -199 297 -493
488 -849 553 -73 14 -315 13 -395 -1z m390 -20 c514 -83 912 -470 1021 -995
18 -87 25 -311 13 -419 -7 -62 -50 -227 -75 -286 -66 -159 -176 -329 -275
-424 -75 -72 -78 -70 -17 13 114 155 193 339 229 532 14 79 18 134 15 260 -2
88 -7 174 -11 190 -28 134 -65 245 -116 347 -37 75 -117 201 -155 244 -146
165 -256 252 -423 334 -179 88 -342 125 -546 124 -177 0 -305 -25 -461 -88
-46 -18 -84 -32 -84 -30 0 4 133 79 185 103 101 47 252 90 370 104 75 9 248 4
330 -9z"/>
</g>
</svg>
